<mxfile host="app.diagrams.net" modified="2023-04-28T19:44:16.228Z" agent="Mozilla/5.0 (Windows NT 10.0; Win64; x64) AppleWebKit/537.36 (KHTML, like Gecko) Chrome/112.0.0.0 Safari/537.36" etag="PQG2IDn7Y0CSubdAjRXp" version="21.2.2" type="github">
  <diagram name="Page-1" id="ao3Bx1dBvi8VgDkKe24h">
    <mxGraphModel dx="934" dy="515" grid="1" gridSize="10" guides="1" tooltips="1" connect="1" arrows="1" fold="1" page="1" pageScale="1" pageWidth="850" pageHeight="1100" math="0" shadow="0">
      <root>
        <mxCell id="0" />
        <mxCell id="1" parent="0" />
        <mxCell id="A9-Nu4dXCVYSjgg7h0Oq-5" value="" style="edgeStyle=orthogonalEdgeStyle;rounded=0;orthogonalLoop=1;jettySize=auto;html=1;" edge="1" parent="1" source="A9-Nu4dXCVYSjgg7h0Oq-2" target="A9-Nu4dXCVYSjgg7h0Oq-4">
          <mxGeometry relative="1" as="geometry" />
        </mxCell>
        <mxCell id="A9-Nu4dXCVYSjgg7h0Oq-8" value="" style="edgeStyle=orthogonalEdgeStyle;rounded=0;orthogonalLoop=1;jettySize=auto;html=1;" edge="1" parent="1" source="A9-Nu4dXCVYSjgg7h0Oq-2" target="A9-Nu4dXCVYSjgg7h0Oq-7">
          <mxGeometry relative="1" as="geometry" />
        </mxCell>
        <mxCell id="A9-Nu4dXCVYSjgg7h0Oq-2" value="&#39;type:&#39;" style="rhombus;whiteSpace=wrap;html=1;strokeWidth=2;" vertex="1" parent="1">
          <mxGeometry x="160" y="160" width="120" height="120" as="geometry" />
        </mxCell>
        <mxCell id="A9-Nu4dXCVYSjgg7h0Oq-4" value="&lt;font style=&quot;font-size: 14px;&quot;&gt;gera um expectation&lt;br&gt;expectation_type :&#39;expect_column_values_to_be_of_type&#39;&amp;nbsp;&lt;br&gt;kwargs:&lt;br&gt;&amp;nbsp;&#39;column:&#39; = &lt;b&gt;key do dict&lt;/b&gt;&lt;br&gt;&#39;type:&#39;=&lt;b&gt;value &#39;type&#39; no subdict&amp;nbsp;&lt;/b&gt;&lt;/font&gt;&amp;nbsp;" style="whiteSpace=wrap;html=1;strokeWidth=2;fillColor=#d5e8d4;strokeColor=#82b366;" vertex="1" parent="1">
          <mxGeometry x="350" y="170" width="450" height="100" as="geometry" />
        </mxCell>
        <mxCell id="A9-Nu4dXCVYSjgg7h0Oq-6" value="Sempre" style="text;html=1;strokeColor=#6c8ebf;fillColor=#dae8fc;align=center;verticalAlign=middle;whiteSpace=wrap;rounded=0;" vertex="1" parent="1">
          <mxGeometry x="280" y="190" width="60" height="30" as="geometry" />
        </mxCell>
        <mxCell id="A9-Nu4dXCVYSjgg7h0Oq-10" value="" style="edgeStyle=orthogonalEdgeStyle;rounded=0;orthogonalLoop=1;jettySize=auto;html=1;" edge="1" parent="1" source="A9-Nu4dXCVYSjgg7h0Oq-7" target="A9-Nu4dXCVYSjgg7h0Oq-9">
          <mxGeometry relative="1" as="geometry" />
        </mxCell>
        <mxCell id="A9-Nu4dXCVYSjgg7h0Oq-13" value="" style="edgeStyle=orthogonalEdgeStyle;rounded=0;orthogonalLoop=1;jettySize=auto;html=1;" edge="1" parent="1" source="A9-Nu4dXCVYSjgg7h0Oq-7" target="A9-Nu4dXCVYSjgg7h0Oq-12">
          <mxGeometry relative="1" as="geometry" />
        </mxCell>
        <mxCell id="A9-Nu4dXCVYSjgg7h0Oq-7" value="&#39;can-be-null&#39;" style="rhombus;whiteSpace=wrap;html=1;strokeWidth=2;" vertex="1" parent="1">
          <mxGeometry x="160" y="310" width="120" height="120" as="geometry" />
        </mxCell>
        <mxCell id="A9-Nu4dXCVYSjgg7h0Oq-16" value="" style="edgeStyle=orthogonalEdgeStyle;rounded=0;orthogonalLoop=1;jettySize=auto;html=1;" edge="1" parent="1" source="A9-Nu4dXCVYSjgg7h0Oq-9" target="A9-Nu4dXCVYSjgg7h0Oq-15">
          <mxGeometry relative="1" as="geometry" />
        </mxCell>
        <mxCell id="A9-Nu4dXCVYSjgg7h0Oq-9" value="&#39;has-to-be-unique&#39;" style="rhombus;whiteSpace=wrap;html=1;strokeWidth=2;" vertex="1" parent="1">
          <mxGeometry x="160" y="460" width="120" height="120" as="geometry" />
        </mxCell>
        <mxCell id="A9-Nu4dXCVYSjgg7h0Oq-12" value="&lt;font style=&quot;border-color: var(--border-color); font-size: 14px;&quot;&gt;gera um expectation&lt;br style=&quot;border-color: var(--border-color);&quot;&gt;expectation_type :&#39;expect_column_values_to_not_be_null&#39;&amp;nbsp;&lt;br style=&quot;border-color: var(--border-color);&quot;&gt;kwargs:&lt;br style=&quot;border-color: var(--border-color);&quot;&gt;&amp;nbsp;&quot;column:&quot; =&amp;nbsp;&lt;b style=&quot;border-color: var(--border-color);&quot;&gt;key do dict&lt;/b&gt;&lt;br style=&quot;border-color: var(--border-color);&quot;&gt;&quot;mostly:&quot;=&lt;b&gt;1&lt;/b&gt;&lt;/font&gt;&lt;font size=&quot;1&quot;&gt;&lt;br&gt;&lt;/font&gt;" style="whiteSpace=wrap;html=1;strokeWidth=2;fillColor=#fff2cc;strokeColor=#d6b656;" vertex="1" parent="1">
          <mxGeometry x="360" y="325" width="440" height="90" as="geometry" />
        </mxCell>
        <mxCell id="A9-Nu4dXCVYSjgg7h0Oq-14" value="Caso False" style="text;html=1;strokeColor=#b85450;fillColor=#f8cecc;align=center;verticalAlign=middle;whiteSpace=wrap;rounded=0;" vertex="1" parent="1">
          <mxGeometry x="280" y="340" width="60" height="30" as="geometry" />
        </mxCell>
        <mxCell id="A9-Nu4dXCVYSjgg7h0Oq-15" value="&lt;font style=&quot;border-color: var(--border-color); font-size: 14px;&quot;&gt;gera um expectation&lt;br style=&quot;border-color: var(--border-color);&quot;&gt;&lt;span style=&quot;font-size: 14px;&quot;&gt;expectation_type :&#39;&lt;/span&gt;&lt;span style=&quot;background-color: initial; font-size: 14px;&quot;&gt;expect_column_values_to_be_unique&lt;/span&gt;&lt;span style=&quot;font-size: 14px;&quot;&gt;&#39;&amp;nbsp;&lt;/span&gt;&lt;br style=&quot;border-color: var(--border-color);&quot;&gt;&lt;span style=&quot;font-size: 14px;&quot;&gt;kwargs:&lt;/span&gt;&lt;br style=&quot;border-color: var(--border-color);&quot;&gt;&lt;span style=&quot;font-size: 14px;&quot;&gt;&amp;nbsp;&quot;column:&quot; =&amp;nbsp;&lt;/span&gt;&lt;b style=&quot;font-size: 14px; border-color: var(--border-color);&quot;&gt;key do dict&lt;/b&gt;&lt;br style=&quot;border-color: var(--border-color);&quot;&gt;&lt;span style=&quot;font-size: 14px;&quot;&gt;&quot;mostly:&quot;=&lt;/span&gt;&lt;b style=&quot;font-size: 14px;&quot;&gt;1&lt;/b&gt;&lt;/font&gt;&lt;font size=&quot;1&quot;&gt;&lt;br&gt;&lt;/font&gt;" style="whiteSpace=wrap;html=1;strokeWidth=2;fillColor=#fff2cc;strokeColor=#d6b656;" vertex="1" parent="1">
          <mxGeometry x="360" y="475" width="440" height="90" as="geometry" />
        </mxCell>
        <mxCell id="A9-Nu4dXCVYSjgg7h0Oq-17" value="Caso&lt;br&gt;True" style="text;html=1;strokeColor=#82b366;fillColor=#d5e8d4;align=center;verticalAlign=middle;whiteSpace=wrap;rounded=0;" vertex="1" parent="1">
          <mxGeometry x="280" y="490" width="60" height="30" as="geometry" />
        </mxCell>
        <mxCell id="A9-Nu4dXCVYSjgg7h0Oq-21" value="" style="edgeStyle=orthogonalEdgeStyle;rounded=0;orthogonalLoop=1;jettySize=auto;html=1;" edge="1" parent="1" source="A9-Nu4dXCVYSjgg7h0Oq-20" target="A9-Nu4dXCVYSjgg7h0Oq-2">
          <mxGeometry relative="1" as="geometry" />
        </mxCell>
        <mxCell id="A9-Nu4dXCVYSjgg7h0Oq-20" value="Cada value(sub&lt;br style=&quot;border-color: var(--border-color);&quot;&gt;em column-basic-checks" style="rounded=0;whiteSpace=wrap;html=1;" vertex="1" parent="1">
          <mxGeometry x="55" y="40" width="330" height="60" as="geometry" />
        </mxCell>
      </root>
    </mxGraphModel>
  </diagram>
</mxfile>
